<svg xmlns="http://www.w3.org/2000/svg" viewBox="0 0 48 48"><path fill="#4285F4" d="M46.7 24.5c0-1.6-.1-3.2-.4-4.7H24v9h12.7c-.6 2.9-2.3 5.4-4.9 7.1v5.9h7.9c4.6-4.2 7.3-10.4 7.3-17.3z"/><path fill="#34A853" d="M24 48c6.5 0 12-2.1 16-5.8l-7.9-5.9c-2.1 1.4-4.8 2.2-8.1 2.2-6.2 0-11.4-4.2-13.3-9.8H2.7v6.1C6.7 42.6 14.8 48 24 48z"/><path fill="#FBBC05" d="M10.8 28.7c-1-2.9-1-6 0-8.9V13.7H2.8c-2.7 5.3-2.7 11.5 0 16.8l8-4.8z"/><path fill="#EA4335" d="M24 9.6c3.4 0 6.5 1.2 9 3.5l6.7-6.7c-4.1-4-9.7-6.3-15.7-6.3C14.8 .1 6.7 5.5 2.7 13.4l8.1 6.2c1.9-5.7 7.2-10 13.2-10z"/></svg>
